<svg width="40" height="40" viewBox="0 0 40 40" fill="none" xmlns="http://www.w3.org/2000/svg">
<path d="M5 15V13.6666C5 11.8 5 10.8666 5.36333 10.1533C5.68333 9.52498 6.19167 9.01665 6.82 8.69665C7.53333 8.33331 8.46667 8.33331 10.3333 8.33331H20.8333M5 15H20.8333M5 15V26.3333C5 28.2 5 29.1333 5.36333 29.8466C5.68291 30.4738 6.19282 30.9837 6.82 31.3033C7.53167 31.6666 8.465 31.6666 10.3283 31.6666H29.6717C31.535 31.6666 32.4667 31.6666 33.1783 31.3033C33.8067 30.9833 34.3167 30.4733 34.6367 29.8466C35 29.1333 35 28.2033 35 26.34V18.3333M26.6667 12.2033L29.14 14.83C29.1952 14.8865 29.2617 14.9308 29.3352 14.9599C29.4087 14.989 29.4876 15.0023 29.5665 14.9988C29.6455 14.9953 29.7229 14.9752 29.7935 14.9398C29.8642 14.9044 29.9266 14.8545 29.9767 14.7933L35 8.33331M10 25H16.6667" stroke="#0077FF" stroke-width="2" stroke-linecap="round" stroke-linejoin="round"/>
</svg>
