<svg width="40" height="40" viewBox="0 0 40 40" fill="none" xmlns="http://www.w3.org/2000/svg">
<path d="M13.8469 11V9.8C13.8469 7.145 13.8469 5 18.7702 5H21.2302C26.1535 5 26.1535 7.145 26.1535 9.8V11M13.8469 35H26.1535C32.3369 35 33.4452 32.5833 33.7685 29.645L34.9219 17.645C35.3385 13.985 34.2602 11 27.6919 11H12.3085C5.7402 11 4.66354 13.985 5.07854 17.645L6.23187 29.645C6.5552 32.5833 7.66354 35 13.8469 35Z" stroke="#0077FF" stroke-width="2" stroke-linecap="round" stroke-linejoin="round"/>
<path d="M16.3535 22.2183C12.448 21.7876 8.69543 20.4578 5.39014 18.3333M23.7235 22.2183C27.6289 21.7876 31.3815 20.4578 34.6868 18.3333M23.3335 22.5C23.3335 23.384 22.9823 24.2319 22.3572 24.857C21.732 25.4821 20.8842 25.8333 20.0001 25.8333C19.1161 25.8333 18.2682 25.4821 17.6431 24.857C17.018 24.2319 16.6668 23.384 16.6668 22.5C16.6668 21.6159 17.018 20.7681 17.6431 20.143C18.2682 19.5178 19.1161 19.1666 20.0001 19.1666C20.8842 19.1666 21.732 19.5178 22.3572 20.143C22.9823 20.7681 23.3335 21.6159 23.3335 22.5Z" stroke="#0077FF" stroke-width="2" stroke-linecap="round" stroke-linejoin="round"/>
</svg>
