<svg width="40" height="40" viewBox="0 0 40 40" fill="none" xmlns="http://www.w3.org/2000/svg">
<path d="M25 15.715V8.33333C25 7.44928 24.6488 6.60143 24.0237 5.97631C23.3986 5.35119 22.5507 5 21.6667 5H18.3333C17.4493 5 16.6014 5.35119 15.9763 5.97631C15.3512 6.60143 15 7.44928 15 8.33333V22.1433M25 15.715V35M25 15.715H31.6667C32.5507 15.715 33.3986 16.0662 34.0237 16.6913C34.6488 17.3164 35 18.1643 35 19.0483V31.6667C35 32.5507 34.6488 33.3986 34.0237 34.0237C33.3986 34.6488 32.5507 35 31.6667 35H25M15 22.1433V35M15 22.1433H8.33333C7.44928 22.1433 6.60143 22.4945 5.97631 23.1196C5.35119 23.7448 5 24.5926 5 25.4767V31.6667C5 32.5507 5.35119 33.3986 5.97631 34.0237C6.60143 34.6488 7.44928 35 8.33333 35H15M25 35H15" stroke="#0077FF" stroke-width="2" stroke-linecap="round" stroke-linejoin="round"/>
</svg>
