<svg width="136" height="40" viewBox="0 0 136 40" fill="none" xmlns="http://www.w3.org/2000/svg">
<path d="M80.6932 38.8061H105.224L100.02 31.0957H90.4221V4.42751H80.6932V38.8061Z" fill="#666666"/>
<path d="M33.1694 9.43839H42.8983L46.4172 0.884766H34.5586L33.1694 9.43839Z" fill="#666666"/>
<path d="M10.5203 38.8061H20.2492V12.1382H29.4837L30.736 4.42751H1.25201L0 12.1382H10.5203V38.8061Z" fill="#666666"/>
<path d="M33.1694 38.8061H42.8983V11.8576H33.1694V38.8061Z" fill="#666666"/>
<path d="M62.9337 4.42751H49.3805L47.2102 9.70317V38.8061H56.8936L56.9391 15.8368V12.0893H62.344C66.3732 12.0893 68.3878 13.9554 68.3878 17.1478C68.3878 20.291 66.3732 22.1573 62.344 22.1573H60.2059V29.8189H62.9337C72.3186 29.8189 78.2151 24.9567 78.2151 17.1478C78.2151 9.28989 72.3186 4.42777 62.9337 4.42777V4.42751Z" fill="#666666"/>
<path fill-rule="evenodd" clip-rule="evenodd" d="M117.682 3.26694C127.799 3.26694 136 11.4641 136 21.576C136 31.6876 127.799 39.8848 117.682 39.8848C107.566 39.8848 99.3646 31.6876 99.3646 21.576C99.3646 11.4641 107.566 3.26694 117.682 3.26694ZM107.836 23.6979C107.33 20.8205 107.689 18.9378 108.966 16.5693C110.207 14.2659 112.948 12.2354 115.555 11.7767C118.124 11.3246 119.715 11.5442 121.911 12.496C122.206 12.6241 122.417 12.7602 122.687 12.9056C124.992 14.1462 127.023 16.8856 127.482 19.4921C127.811 21.3649 127.798 22.4919 127.372 24.1986C127.101 25.2815 126.523 26.4357 125.88 27.3527C125.702 27.6066 125.597 27.7773 125.383 28.0143C124.762 28.6985 124.233 29.2682 123.461 29.8046C121.535 31.1438 119.287 31.7663 116.908 31.6168C114.01 31.4345 111.109 29.775 109.445 27.3944C108.837 26.5232 108.074 25.0495 107.836 23.6979H107.836Z" fill="#666666"/>
<path d="M80.6932 38.8061H105.224L100.02 31.0957H90.4221V4.42751H80.6932V38.8061Z" fill="#666666"/>
<path d="M33.1694 9.43839H42.8983L46.4172 0.884766H34.5586L33.1694 9.43839Z" fill="#666666"/>
<path d="M10.5203 38.8061H20.2492V12.1382H29.4837L30.736 4.42751H1.25201L0 12.1382H10.5203V38.8061Z" fill="#666666"/>
<path d="M33.1694 38.8061H42.8983V11.8576H33.1694V38.8061Z" fill="#666666"/>
<path d="M62.9337 4.42751H49.3805L47.2102 9.70317V38.8061H56.8936L56.9391 15.8368V12.0893H62.344C66.3732 12.0893 68.3878 13.9554 68.3878 17.1478C68.3878 20.291 66.3732 22.1573 62.344 22.1573H60.2059V29.8189H62.9337C72.3186 29.8189 78.2151 24.9567 78.2151 17.1478C78.2151 9.28989 72.3186 4.42777 62.9337 4.42777V4.42751Z" fill="#666666"/>
<path fill-rule="evenodd" clip-rule="evenodd" d="M117.682 3.26694C127.799 3.26694 136 11.4641 136 21.576C136 31.6876 127.799 39.8848 117.682 39.8848C107.566 39.8848 99.3646 31.6876 99.3646 21.576C99.3646 11.4641 107.566 3.26694 117.682 3.26694ZM107.836 23.6979C107.33 20.8205 107.689 18.9378 108.966 16.5693C110.207 14.2659 112.948 12.2354 115.555 11.7767C118.124 11.3246 119.715 11.5442 121.911 12.496C122.206 12.6241 122.417 12.7602 122.687 12.9056C124.992 14.1462 127.023 16.8856 127.482 19.4921C127.811 21.3649 127.798 22.4919 127.372 24.1986C127.101 25.2815 126.523 26.4357 125.88 27.3527C125.702 27.6066 125.597 27.7773 125.383 28.0143C124.762 28.6985 124.233 29.2682 123.461 29.8046C121.535 31.1438 119.287 31.7663 116.908 31.6168C114.01 31.4345 111.109 29.775 109.445 27.3944C108.837 26.5232 108.074 25.0495 107.836 23.6979H107.836Z" fill="#666666"/>
</svg>
